bw_sq_140_01
version=1
nRows=27
nColumns=46
inDegrees=yes
endheader
time	ground_force3_vx	ground_force3_vy	ground_force3_vz	ground_force3_px	ground_force3_py	ground_force3_pz	ground_torque3_x	ground_torque3_y	ground_torque3_z	ground_force5_vx	ground_force5_vy	ground_force5_vz	ground_force5_px	ground_force5_py	ground_force5_pz	ground_torque5_x	ground_torque5_y	ground_torque5_z	ground_force4_vx	ground_force4_vy	ground_force4_vz	ground_force4_px	ground_force4_py	ground_force4_pz	ground_torque4_x	ground_torque4_y	ground_torque4_z	ground_force1_vx	ground_force1_vy	ground_force1_vz	ground_force1_px	ground_force1_py	ground_force1_pz	ground_torque1_x	ground_torque1_y	ground_torque1_z	ground_force2_vx	ground_force2_vy	ground_force2_vz	ground_force2_px	ground_force2_py	ground_force2_pz	ground_torque2_x	ground_torque2_y	ground_torque2_z
0.000000	-0.000000	-0.000000	0.000000	0.200000	0.000000	-0.300000	0.000000	0.000000	-0.000000	-2.494095	339.713379	102.816208	0.210670	0.000000	-1.590131	0.000028	2.547268	0.000005	-0.175010	336.669464	-104.804474	0.214696	0.000000	-0.838804	0.000032	-2.420684	0.000004	-0.000000	-0.000000	0.000000	0.200000	0.000000	0.904000	0.000000	0.000000	-0.000000	-0.000000	-0.000000	0.000000	0.400000	0.000000	0.302000	0.000000	0.000000	-0.000000	
0.001000	-0.000000	-0.000000	0.000000	0.200000	0.000000	-0.300000	0.000000	0.000000	-0.000000	-2.333901	342.580383	102.816544	0.210966	0.000000	-1.588097	0.000029	2.633394	0.000000	0.147074	336.666748	-104.643936	0.214760	0.000000	-0.839521	0.000013	-2.479781	0.000006	-0.000000	-0.000000	0.000000	0.200000	0.000000	0.904000	0.000000	0.000000	-0.000000	-0.000000	-0.000000	0.000000	0.400000	0.000000	0.302000	0.000000	0.000000	-0.000000	
0.002000	-0.000000	-0.000000	0.000000	0.200000	0.000000	-0.300000	0.000000	0.000000	-0.000000	-2.333391	341.946930	103.138290	0.211411	0.000000	-1.588199	0.000002	2.558392	0.000004	-0.337597	336.984283	-104.479332	0.215029	0.000000	-0.840115	-0.000003	-2.316919	0.000005	-0.000000	-0.000000	0.000000	0.200000	0.000000	0.904000	0.000000	0.000000	-0.000000	-0.000000	-0.000000	0.000000	0.400000	0.000000	0.302000	0.000000	0.000000	-0.000000	
0.003000	-0.000000	-0.000000	0.000000	0.200000	0.000000	-0.300000	0.000000	0.000000	-0.000000	-3.138946	341.310791	103.780426	0.211500	0.000000	-1.589744	0.000024	2.634219	0.000005	0.150163	336.985962	-104.641907	0.215299	0.000000	-0.839039	0.000005	-2.216361	0.000005	-0.000000	-0.000000	0.000000	0.200000	0.000000	0.904000	0.000000	0.000000	-0.000000	-0.000000	-0.000000	0.000000	0.400000	0.000000	0.302000	0.000000	0.000000	-0.000000	
0.004000	-0.000000	-0.000000	0.000000	0.200000	0.000000	-0.300000	0.000000	0.000000	-0.000000	-2.816520	343.540375	103.298141	0.211183	0.000000	-1.588331	0.000028	2.557068	0.000003	-0.013968	338.267914	-104.483406	0.215014	0.000000	-0.839984	0.000022	-2.452746	0.000006	-0.000000	-0.000000	0.000000	0.200000	0.000000	0.904000	0.000000	0.000000	-0.000000	-0.000000	-0.000000	0.000000	0.400000	0.000000	0.302000	0.000000	0.000000	-0.000000	
0.005000	-0.000000	-0.000000	0.000000	0.200000	0.000000	-0.300000	0.000000	0.000000	-0.000000	-2.656326	343.221191	102.816879	0.211552	0.000000	-1.587554	0.000025	2.701823	0.000005	0.470704	336.349548	-103.997726	0.214673	0.000000	-0.838076	-0.000001	-2.399575	-0.000001	-0.000000	-0.000000	0.000000	0.200000	0.000000	0.904000	0.000000	0.000000	-0.000000	-0.000000	-0.000000	0.000000	0.400000	0.000000	0.302000	0.000000	0.000000	-0.000000	
0.006000	-0.000000	-0.000000	0.000000	0.200000	0.000000	-0.300000	0.000000	0.000000	-0.000000	-2.977223	343.539062	103.459358	0.211399	0.000000	-1.587205	0.000053	2.568858	0.000005	-0.175010	336.991028	-104.318802	0.214364	0.000000	-0.839709	0.000033	-2.365518	0.000003	-0.000000	-0.000000	0.000000	0.200000	0.000000	0.904000	0.000000	0.000000	-0.000000	-0.000000	-0.000000	0.000000	0.400000	0.000000	0.302000	0.000000	0.000000	-0.000000	
0.007000	-0.000000	-0.000000	0.000000	0.200000	0.000000	-0.300000	0.000000	0.000000	-0.000000	-2.172178	341.947571	103.138290	0.212039	0.000000	-1.589659	-0.000005	2.450931	0.000007	0.472248	335.390564	-104.158264	0.214394	0.000000	-0.838831	0.000017	-2.342576	0.000001	-0.000000	-0.000000	0.000000	0.200000	0.000000	0.904000	0.000000	0.000000	-0.000000	-0.000000	-0.000000	0.000000	0.400000	0.000000	0.302000	0.000000	0.000000	-0.000000	
0.008000	-0.000000	-0.000000	0.000000	0.200000	0.000000	-0.300000	0.000000	0.000000	-0.000000	-2.655816	344.178833	102.977417	0.211187	0.000000	-1.588215	0.000026	2.655645	0.000005	-0.661228	336.345520	-103.676659	0.214979	0.000000	-0.838775	0.000014	-2.451681	0.000003	-0.000000	-0.000000	0.000000	0.200000	0.000000	0.904000	0.000000	0.000000	-0.000000	-0.000000	-0.000000	0.000000	0.400000	0.000000	0.302000	0.000000	0.000000	-0.000000	
0.009000	-0.000000	-0.000000	0.000000	0.200000	0.000000	-0.300000	0.000000	0.000000	-0.000000	-2.333391	342.585693	103.298828	0.211846	0.000000	-1.586903	0.000003	2.489312	0.000007	-0.178100	337.314941	-104.961952	0.213767	0.000000	-0.838928	0.000025	-2.510276	0.000002	-0.000000	-0.000000	0.000000	0.200000	0.000000	0.904000	0.000000	0.000000	-0.000000	-0.000000	-0.000000	0.000000	0.400000	0.000000	0.302000	0.000000	0.000000	-0.000000	
0.010000	-0.000000	-0.000000	0.000000	0.200000	0.000000	-0.300000	0.000000	0.000000	-0.000000	-2.333391	342.581726	103.299164	0.211197	0.000000	-1.587288	0.000006	2.595852	0.000002	-0.013968	338.913086	-104.158264	0.214319	0.000000	-0.840407	0.000003	-2.413918	0.000002	-0.000000	-0.000000	0.000000	0.200000	0.000000	0.904000	0.000000	0.000000	-0.000000	-0.000000	-0.000000	0.000000	0.400000	0.000000	0.302000	0.000000	0.000000	-0.000000	
0.011000	-0.000000	-0.000000	0.000000	0.200000	0.000000	-0.300000	0.000000	0.000000	-0.000000	-2.011475	342.908264	103.460037	0.212394	0.000000	-1.587703	0.000037	2.463455	0.000004	-0.173467	336.994080	-104.319817	0.214112	0.000000	-0.838599	0.000016	-2.365749	0.000003	-0.000000	-0.000000	0.000000	0.200000	0.000000	0.904000	0.000000	0.000000	-0.000000	-0.000000	-0.000000	0.000000	0.400000	0.000000	0.302000	0.000000	0.000000	-0.000000	
0.012000	-0.000000	-0.000000	0.000000	0.200000	0.000000	-0.300000	0.000000	0.000000	-0.000000	-2.334919	342.585693	102.977753	0.211802	0.000000	-1.588787	0.000012	2.733822	0.000003	0.473793	337.314941	-104.156219	0.214100	0.000000	-0.839555	0.000013	-2.231410	0.000001	-0.000000	-0.000000	0.000000	0.200000	0.000000	0.904000	0.000000	0.000000	-0.000000	-0.000000	-0.000000	0.000000	0.400000	0.000000	0.302000	0.000000	0.000000	-0.000000	
0.013000	-0.000000	-0.000000	0.000000	0.200000	0.000000	-0.300000	0.000000	0.000000	-0.000000	-2.655816	343.858948	103.460037	0.211741	0.000000	-1.587666	0.000036	2.649376	0.000005	-0.178100	335.712128	-104.318802	0.214614	0.000000	-0.838363	0.000005	-2.469264	0.000003	-0.000000	-0.000000	0.000000	0.200000	0.000000	0.904000	0.000000	0.000000	-0.000000	-0.000000	-0.000000	0.000000	0.400000	0.000000	0.302000	0.000000	0.000000	-0.000000	
0.014000	-0.000000	-0.000000	0.000000	0.200000	0.000000	-0.300000	0.000000	0.000000	-0.000000	-2.978242	341.629395	103.460373	0.212532	0.000000	-1.587286	0.000021	2.696481	0.000003	0.956920	334.757172	-104.477295	0.213783	0.000000	-0.837627	0.000019	-2.286148	0.000004	-0.000000	-0.000000	0.000000	0.200000	0.000000	0.904000	0.000000	0.000000	-0.000000	-0.000000	-0.000000	0.000000	0.400000	0.000000	0.302000	0.000000	0.000000	-0.000000	
0.015000	-0.000000	-0.000000	0.000000	0.200000	0.000000	-0.300000	0.000000	0.000000	-0.000000	-2.816011	343.540710	103.299164	0.211847	0.000000	-1.587216	0.000022	2.536645	0.000000	0.634835	337.955078	-104.156219	0.213873	0.000000	-0.839671	0.000013	-2.277249	0.000007	-0.000000	-0.000000	0.000000	0.200000	0.000000	0.904000	0.000000	0.000000	-0.000000	-0.000000	-0.000000	0.000000	0.400000	0.000000	0.302000	0.000000	0.000000	-0.000000	
0.016000	-0.000000	-0.000000	0.000000	0.200000	0.000000	-0.300000	0.000000	0.000000	-0.000000	-2.012494	342.582062	103.781784	0.211866	0.000000	-1.587939	0.000006	2.682119	0.000008	0.312750	335.708771	-104.960938	0.214487	0.000000	-0.839563	0.000014	-2.138269	0.000005	-0.000000	-0.000000	0.000000	0.200000	0.000000	0.904000	0.000000	0.000000	-0.000000	-0.000000	-0.000000	0.000000	0.400000	0.000000	0.302000	0.000000	0.000000	-0.000000	
0.017000	-0.000000	-0.000000	0.000000	0.200000	0.000000	-0.300000	0.000000	0.000000	-0.000000	-2.817029	343.222473	103.781441	0.212191	0.000000	-1.586670	0.000040	2.641930	0.000003	-0.176555	337.316284	-104.320831	0.213757	0.000000	-0.838469	0.000024	-2.571133	0.000003	-0.000000	-0.000000	0.000000	0.200000	0.000000	0.904000	0.000000	0.000000	-0.000000	-0.000000	-0.000000	0.000000	0.400000	0.000000	0.302000	0.000000	0.000000	-0.000000	
0.018000	-0.000000	-0.000000	0.000000	0.200000	0.000000	-0.300000	0.000000	0.000000	-0.000000	-2.655816	342.901611	103.299164	0.211665	0.000000	-1.587748	0.000025	2.640011	0.000000	0.960009	336.997070	-103.834137	0.213822	0.000000	-0.838524	0.000022	-2.200533	0.000005	-0.000000	-0.000000	0.000000	0.200000	0.000000	0.904000	0.000000	0.000000	-0.000000	-0.000000	-0.000000	0.000000	0.400000	0.000000	0.302000	0.000000	0.000000	-0.000000	
0.019000	-0.000000	-0.000000	0.000000	0.200000	0.000000	-0.300000	0.000000	0.000000	-0.000000	-2.816520	343.859924	103.299835	0.212348	0.000000	-1.588040	0.000011	2.628723	0.000007	0.956920	337.319000	-104.477295	0.213501	0.000000	-0.839955	0.000031	-2.317831	0.000004	-0.000000	-0.000000	0.000000	0.200000	0.000000	0.904000	0.000000	0.000000	-0.000000	-0.000000	-0.000000	0.000000	0.400000	0.000000	0.302000	0.000000	0.000000	-0.000000	
0.020000	-0.000000	-0.000000	0.000000	0.200000	0.000000	-0.300000	0.000000	0.000000	-0.000000	-3.138436	341.312134	103.620911	0.212372	0.000000	-1.589007	0.000011	2.613945	0.000001	0.794333	335.721893	-104.479332	0.213168	0.000000	-0.838355	0.000015	-2.471153	0.000008	-0.000000	-0.000000	0.000000	0.200000	0.000000	0.904000	0.000000	0.000000	-0.000000	-0.000000	-0.000000	0.000000	0.400000	0.000000	0.302000	0.000000	0.000000	-0.000000	
0.021000	-0.000000	-0.000000	0.000000	0.200000	0.000000	-0.300000	0.000000	0.000000	-0.000000	-4.103675	343.220825	104.263718	0.211335	0.000000	-1.588456	0.000019	2.729973	0.000004	0.634835	335.398956	-104.157242	0.213282	0.000000	-0.838807	0.000007	-2.376967	0.000006	-0.000000	-0.000000	0.000000	0.200000	0.000000	0.904000	0.000000	0.000000	-0.000000	-0.000000	-0.000000	0.000000	0.400000	0.000000	0.302000	0.000000	0.000000	-0.000000	
0.022000	-0.000000	-0.000000	0.000000	0.200000	0.000000	-0.300000	0.000000	0.000000	-0.000000	-2.977733	343.862244	103.138969	0.212334	0.000000	-1.587695	0.000018	2.657599	0.000005	0.634835	334.760498	-104.315735	0.213532	0.000000	-0.838709	0.000034	-2.252113	0.000004	-0.000000	-0.000000	0.000000	0.200000	0.000000	0.904000	0.000000	0.000000	-0.000000	-0.000000	-0.000000	0.000000	0.400000	0.000000	0.302000	0.000000	0.000000	-0.000000	
0.023000	-0.000000	-0.000000	0.000000	0.200000	0.000000	-0.300000	0.000000	0.000000	-0.000000	-2.977223	342.584717	103.781441	0.212196	0.000000	-1.586460	0.000019	2.557447	0.000004	0.956920	336.362000	-103.993652	0.212942	0.000000	-0.838407	0.000017	-2.361513	0.000005	-0.000000	-0.000000	0.000000	0.200000	0.000000	0.904000	0.000000	0.000000	-0.000000	-0.000000	-0.000000	0.000000	0.400000	0.000000	0.302000	0.000000	0.000000	-0.000000	
0.024000	-0.000000	-0.000000	0.000000	0.200000	0.000000	-0.300000	0.000000	0.000000	-0.000000	-3.460352	340.671692	103.460037	0.212150	0.000000	-1.588461	0.000054	2.645176	0.000005	0.958465	338.610687	-104.156219	0.212275	0.000000	-0.837557	0.000014	-2.421277	0.000004	-0.000000	-0.000000	0.000000	0.200000	0.000000	0.904000	0.000000	0.000000	-0.000000	-0.000000	-0.000000	0.000000	0.400000	0.000000	0.302000	0.000000	0.000000	-0.000000	
0.025000	-0.000000	-0.000000	0.000000	0.200000	0.000000	-0.300000	0.000000	0.000000	-0.000000	-3.138436	343.860596	103.460037	0.212314	0.000000	-1.587652	0.000032	2.598428	0.000004	0.148618	337.329407	-104.478310	0.212224	0.000000	-0.838458	0.000019	-2.508166	0.000008	-0.000000	-0.000000	0.000000	0.200000	0.000000	0.904000	0.000000	0.000000	-0.000000	-0.000000	-0.000000	0.000000	0.400000	0.000000	0.302000	0.000000	0.000000	-0.000000	
0.026000	-0.000000	-0.000000	0.000000	0.200000	0.000000	-0.300000	0.000000	0.000000	-0.000000	-3.622075	342.580383	103.782120	0.211220	0.000000	-1.587955	0.000024	2.923486	0.000001	1.282095	333.798126	-104.316757	0.213545	0.000000	-0.838341	0.000026	-2.247373	0.000004	-0.000000	-0.000000	0.000000	0.200000	0.000000	0.904000	0.000000	0.000000	-0.000000	-0.000000	-0.000000	0.000000	0.400000	0.000000	0.302000	0.000000	0.000000	-0.000000	
